<svg width="302" height="41" viewBox="0 0 302 41" fill="none" xmlns="http://www.w3.org/2000/svg">
<path fill-rule="evenodd" clip-rule="evenodd" d="M13.0699 6.3761C13.3057 6.29749 13.5643 6.32826 13.7751 6.46L20.0001 10.3506L26.2251 6.46C26.4359 6.32826 26.6945 6.29749 26.9303 6.3761L31.9303 8.04277C32.1061 8.10137 32.2573 8.21689 32.3601 8.37108L35.6935 13.3711C35.8361 13.5851 35.872 13.8529 35.7907 14.0969L32.4573 24.0969C32.4096 24.2401 32.3238 24.3678 32.2091 24.466L20.5424 34.466C20.2303 34.7335 19.7698 34.7335 19.4578 34.466L7.79109 24.466C7.67642 24.3678 7.59061 24.2401 7.54285 24.0969L4.20952 14.0969C4.1282 13.8529 4.16406 13.5851 4.30671 13.3711L7.64004 8.37108C7.74284 8.21689 7.89409 8.10137 8.0699 8.04277L13.0699 6.3761ZM8.86819 9.53349L5.91954 13.9565L9.051 23.3508L20.0001 32.7358L30.9492 23.3508L34.0806 13.9565L31.132 9.53349L26.7756 8.08136L20.4418 12.04C20.1715 12.2089 19.8286 12.2089 19.5584 12.04L13.2246 8.08136L8.86819 9.53349Z" fill="#532800"/>
<path fill-rule="evenodd" clip-rule="evenodd" d="M14.3334 13.3333C14.5751 13.0111 15.0125 12.9079 15.3728 13.088L20.0001 15.4016L24.6274 13.088C24.9876 12.9079 25.4251 13.0111 25.6668 13.3333L28.1668 16.6667C28.3413 16.8993 28.3818 17.2061 28.2738 17.4762L26.6072 21.6428C26.5479 21.7908 26.4475 21.9188 26.3178 22.0114L20.4844 26.1781C20.1947 26.3851 19.8055 26.3851 19.5157 26.1781L13.6824 22.0114C13.5527 21.9188 13.4522 21.7908 13.393 21.6428L11.7264 17.4762C11.6183 17.2061 11.6589 16.8993 11.8334 16.6667L14.3334 13.3333ZM24.7507 14.8897L20.3728 17.0787C20.1382 17.196 19.862 17.196 19.6274 17.0787L15.2495 14.8897L13.4478 17.292L14.8498 20.7971L20.0001 24.4759L25.1504 20.7971L26.5524 17.292L24.7507 14.8897Z" fill="#532800"/>
<path fill-rule="evenodd" clip-rule="evenodd" d="M26.8688 6.35822C26.4223 6.24659 25.9699 6.51806 25.8583 6.96455L24.1916 13.6312C24.08 14.0777 24.3514 14.5302 24.7979 14.6418C25.2444 14.7534 25.6969 14.4819 25.8085 14.0354L27.4752 7.36878C27.5868 6.92229 27.3153 6.46984 26.8688 6.35822Z" fill="#532800"/>
<path fill-rule="evenodd" clip-rule="evenodd" d="M13.1313 6.35822C13.5778 6.24659 14.0302 6.51806 14.1419 6.96455L15.8085 13.6312C15.9202 14.0777 15.6487 14.5302 15.2022 14.6418C14.7557 14.7534 14.3032 14.4819 14.1916 14.0354L12.525 7.36878C12.4133 6.92229 12.6848 6.46984 13.1313 6.35822Z" fill="#532800"/>
<path fill-rule="evenodd" clip-rule="evenodd" d="M20.0001 10.5C20.4603 10.5 20.8334 10.8731 20.8334 11.3333V16.3333C20.8334 16.7936 20.4603 17.1667 20.0001 17.1667C19.5398 17.1667 19.1667 16.7936 19.1667 16.3333V11.3333C19.1667 10.8731 19.5398 10.5 20.0001 10.5Z" fill="#532800"/>
<path fill-rule="evenodd" clip-rule="evenodd" d="M4.23854 13.4949C4.42546 13.0743 4.91792 12.8849 5.33849 13.0718L12.8385 16.4052C13.2591 16.5921 13.4485 17.0845 13.2616 17.5051C13.0746 17.9257 12.5822 18.1151 12.1616 17.9282L4.6616 14.5948C4.24103 14.4079 4.05162 13.9155 4.23854 13.4949Z" fill="#532800"/>
<path fill-rule="evenodd" clip-rule="evenodd" d="M35.7616 13.4949C35.5747 13.0743 35.0822 12.8849 34.6616 13.0718L27.1616 16.4052C26.7411 16.5921 26.5516 17.0845 26.7386 17.5051C26.9255 17.9257 27.418 18.1151 27.8385 17.9282L35.3385 14.5948C35.7591 14.4079 35.9485 13.9155 35.7616 13.4949Z" fill="#532800"/>
<path fill-rule="evenodd" clip-rule="evenodd" d="M20.0001 24.6667C20.4603 24.6667 20.8334 25.0398 20.8334 25.5V33.8333C20.8334 34.2936 20.4603 34.6667 20.0001 34.6667C19.5398 34.6667 19.1667 34.2936 19.1667 33.8333V25.5C19.1667 25.0398 19.5398 24.6667 20.0001 24.6667Z" fill="#532800"/>
<path fill-rule="evenodd" clip-rule="evenodd" d="M14.9327 21.0051C15.114 21.4281 14.918 21.918 14.495 22.0993L8.66169 24.5993C8.23867 24.7806 7.74877 24.5846 7.56747 24.1616C7.38617 23.7386 7.58213 23.2487 8.00516 23.0674L13.8385 20.5674C14.2615 20.3861 14.7514 20.582 14.9327 21.0051Z" fill="#532800"/>
<path fill-rule="evenodd" clip-rule="evenodd" d="M25.0674 21.0051C24.8861 21.4281 25.0821 21.918 25.5051 22.0993L31.3384 24.5993C31.7615 24.7806 32.2514 24.5846 32.4327 24.1616C32.6139 23.7386 32.418 23.2487 31.995 23.0674L26.1616 20.5674C25.7386 20.3861 25.2487 20.582 25.0674 21.0051Z" fill="#532800"/>
<path d="M45.3906 13H49.5625L53.9688 23.75H54.1563L58.5625 13H62.7344V29H59.4531V18.5859H59.3203L55.1797 28.9219H52.9453L48.8047 18.5469H48.6719V29H45.3906V13ZM68.8809 29.2266C68.1152 29.2266 67.4329 29.0938 66.834 28.8281C66.235 28.5573 65.7611 28.1589 65.4121 27.6328C65.0684 27.1016 64.8965 26.4401 64.8965 25.6484C64.8965 24.9818 65.0189 24.4219 65.2637 23.9687C65.5085 23.5156 65.8418 23.151 66.2637 22.875C66.6855 22.599 67.1647 22.3906 67.7012 22.25C68.2428 22.1094 68.8105 22.0104 69.4043 21.9531C70.1022 21.8802 70.6647 21.8125 71.0918 21.75C71.5189 21.6823 71.8288 21.5833 72.0215 21.4531C72.2142 21.3229 72.3105 21.1302 72.3105 20.875V20.8281C72.3105 20.3333 72.1543 19.9505 71.8418 19.6797C71.5345 19.4089 71.097 19.2734 70.5293 19.2734C69.9303 19.2734 69.4538 19.4062 69.0996 19.6719C68.7454 19.9323 68.5111 20.2604 68.3965 20.6562L65.3184 20.4062C65.4746 19.6771 65.7819 19.0469 66.2402 18.5156C66.6986 17.9792 67.2897 17.5677 68.0137 17.2812C68.7428 16.9896 69.5866 16.8438 70.5449 16.8438C71.2116 16.8438 71.8496 16.9219 72.459 17.0781C73.0736 17.2344 73.6178 17.4766 74.0918 17.8047C74.571 18.1328 74.9486 18.5547 75.2246 19.0703C75.5007 19.5807 75.6387 20.1927 75.6387 20.9062V29H72.4824V27.3359H72.3887C72.196 27.7109 71.9382 28.0417 71.6152 28.3281C71.2923 28.6094 70.9043 28.8307 70.4512 28.9922C69.998 29.1484 69.4746 29.2266 68.8809 29.2266ZM69.834 26.9297C70.3236 26.9297 70.7559 26.8333 71.1309 26.6406C71.5059 26.4427 71.8001 26.1771 72.0137 25.8438C72.2272 25.5104 72.334 25.1328 72.334 24.7109V23.4375C72.2298 23.5052 72.0866 23.5677 71.9043 23.625C71.7272 23.6771 71.5267 23.7266 71.3027 23.7734C71.0788 23.8151 70.8548 23.8542 70.6309 23.8906C70.4069 23.9219 70.2038 23.9505 70.0215 23.9766C69.6309 24.0339 69.2897 24.125 68.998 24.25C68.7064 24.375 68.4798 24.5443 68.3184 24.7578C68.1569 24.9661 68.0762 25.2266 68.0762 25.5391C68.0762 25.9922 68.2402 26.3385 68.5684 26.5781C68.9017 26.8125 69.3236 26.9297 69.834 26.9297ZM83.627 33.75C82.5488 33.75 81.6243 33.6016 80.8535 33.3047C80.0879 33.013 79.4785 32.6146 79.0254 32.1094C78.5723 31.6042 78.278 31.0365 78.1426 30.4062L81.2207 29.9922C81.3145 30.2318 81.4629 30.4557 81.666 30.6641C81.8691 30.8724 82.1374 31.0391 82.4707 31.1641C82.8092 31.2943 83.2207 31.3594 83.7051 31.3594C84.429 31.3594 85.0254 31.1823 85.4941 30.8281C85.9681 30.4792 86.2051 29.8932 86.2051 29.0703V26.875H86.0645C85.9186 27.2083 85.6999 27.5234 85.4082 27.8203C85.1165 28.1172 84.7415 28.3594 84.2832 28.5469C83.8249 28.7344 83.278 28.8281 82.6426 28.8281C81.7415 28.8281 80.9212 28.6198 80.1816 28.2031C79.4473 27.7812 78.8613 27.138 78.4238 26.2734C77.9915 25.4036 77.7754 24.3047 77.7754 22.9766C77.7754 21.6172 77.9967 20.4818 78.4395 19.5703C78.8822 18.6589 79.4707 17.9766 80.2051 17.5234C80.9447 17.0703 81.7546 16.8438 82.6348 16.8438C83.3066 16.8438 83.8691 16.9583 84.3223 17.1875C84.7754 17.4115 85.14 17.6927 85.416 18.0312C85.6973 18.3646 85.9134 18.6927 86.0645 19.0156H86.1895V17H89.4941V29.1172C89.4941 30.138 89.2441 30.9922 88.7441 31.6797C88.2441 32.3672 87.5514 32.8828 86.666 33.2266C85.7858 33.5755 84.7728 33.75 83.627 33.75ZM83.6973 26.3281C84.2337 26.3281 84.6868 26.1953 85.0566 25.9297C85.4316 25.6589 85.7181 25.2734 85.916 24.7734C86.1191 24.2682 86.2207 23.6641 86.2207 22.9609C86.2207 22.2578 86.1217 21.6484 85.9238 21.1328C85.7259 20.612 85.4395 20.2083 85.0645 19.9219C84.6895 19.6354 84.2337 19.4922 83.6973 19.4922C83.1504 19.4922 82.6895 19.6406 82.3145 19.9375C81.9395 20.2292 81.6556 20.6354 81.4629 21.1562C81.2702 21.6771 81.1738 22.2786 81.1738 22.9609C81.1738 23.6536 81.2702 24.2526 81.4629 24.7578C81.6608 25.2578 81.9447 25.6458 82.3145 25.9219C82.6895 26.1927 83.1504 26.3281 83.6973 26.3281ZM92.1426 29V17H95.4707V29H92.1426ZM93.8145 15.4531C93.3197 15.4531 92.8952 15.2891 92.541 14.9609C92.1921 14.6276 92.0176 14.2292 92.0176 13.7656C92.0176 13.3073 92.1921 12.9141 92.541 12.5859C92.8952 12.2526 93.3197 12.0859 93.8145 12.0859C94.3092 12.0859 94.7311 12.2526 95.0801 12.5859C95.4342 12.9141 95.6113 13.3073 95.6113 13.7656C95.6113 14.2292 95.4342 14.6276 95.0801 14.9609C94.7311 15.2891 94.3092 15.4531 93.8145 15.4531ZM103.559 29.2344C102.329 29.2344 101.272 28.974 100.387 28.4531C99.5065 27.9271 98.8294 27.1979 98.3555 26.2656C97.8867 25.3333 97.6523 24.2604 97.6523 23.0469C97.6523 21.8177 97.8893 20.7396 98.3633 19.8125C98.8424 18.8802 99.5221 18.1536 100.402 17.6328C101.283 17.1068 102.329 16.8438 103.543 16.8438C104.59 16.8438 105.507 17.0339 106.293 17.4141C107.079 17.7943 107.702 18.3281 108.16 19.0156C108.618 19.7031 108.871 20.5104 108.918 21.4375H105.777C105.689 20.8385 105.454 20.3568 105.074 19.9922C104.699 19.6224 104.207 19.4375 103.598 19.4375C103.082 19.4375 102.632 19.5781 102.246 19.8594C101.866 20.1354 101.569 20.5391 101.355 21.0703C101.142 21.6016 101.035 22.2448 101.035 23C101.035 23.7656 101.139 24.4167 101.348 24.9531C101.561 25.4896 101.861 25.8984 102.246 26.1797C102.632 26.4609 103.082 26.6016 103.598 26.6016C103.978 26.6016 104.319 26.5234 104.621 26.3672C104.928 26.2109 105.181 25.9844 105.379 25.6875C105.582 25.3854 105.715 25.0234 105.777 24.6016H108.918C108.866 25.5182 108.616 26.3255 108.168 27.0234C107.725 27.7161 107.113 28.2578 106.332 28.6484C105.551 29.0391 104.626 29.2344 103.559 29.2344ZM114.471 29.2266C113.705 29.2266 113.023 29.0938 112.424 28.8281C111.825 28.5573 111.351 28.1589 111.002 27.6328C110.658 27.1016 110.486 26.4401 110.486 25.6484C110.486 24.9818 110.609 24.4219 110.854 23.9687C111.098 23.5156 111.432 23.151 111.854 22.875C112.275 22.599 112.755 22.3906 113.291 22.25C113.833 22.1094 114.4 22.0104 114.994 21.9531C115.692 21.8802 116.255 21.8125 116.682 21.75C117.109 21.6823 117.419 21.5833 117.611 21.4531C117.804 21.3229 117.9 21.1302 117.9 20.875V20.8281C117.9 20.3333 117.744 19.9505 117.432 19.6797C117.124 19.4089 116.687 19.2734 116.119 19.2734C115.52 19.2734 115.044 19.4062 114.689 19.6719C114.335 19.9323 114.101 20.2604 113.986 20.6562L110.908 20.4062C111.064 19.6771 111.372 19.0469 111.83 18.5156C112.288 17.9792 112.88 17.5677 113.604 17.2812C114.333 16.9896 115.176 16.8438 116.135 16.8438C116.801 16.8438 117.439 16.9219 118.049 17.0781C118.663 17.2344 119.208 17.4766 119.682 17.8047C120.161 18.1328 120.538 18.5547 120.814 19.0703C121.09 19.5807 121.229 20.1927 121.229 20.9062V29H118.072V27.3359H117.979C117.786 27.7109 117.528 28.0417 117.205 28.3281C116.882 28.6094 116.494 28.8307 116.041 28.9922C115.588 29.1484 115.064 29.2266 114.471 29.2266ZM115.424 26.9297C115.913 26.9297 116.346 26.8333 116.721 26.6406C117.096 26.4427 117.39 26.1771 117.604 25.8438C117.817 25.5104 117.924 25.1328 117.924 24.7109V23.4375C117.82 23.5052 117.676 23.5677 117.494 23.625C117.317 23.6771 117.117 23.7266 116.893 23.7734C116.669 23.8151 116.445 23.8542 116.221 23.8906C115.997 23.9219 115.794 23.9505 115.611 23.9766C115.221 24.0339 114.88 24.125 114.588 24.25C114.296 24.375 114.07 24.5443 113.908 24.7578C113.747 24.9661 113.666 25.2266 113.666 25.5391C113.666 25.9922 113.83 26.3385 114.158 26.5781C114.492 26.8125 114.913 26.9297 115.424 26.9297ZM127.139 13V29H123.811V13H127.139ZM134.959 13H139.131L143.537 23.75H143.725L148.131 13H152.303V29H149.021V18.5859H148.889L144.748 28.9219H142.514L138.373 18.5469H138.24V29H134.959V13ZM160.496 29.2344C159.262 29.2344 158.199 28.9844 157.309 28.4844C156.423 27.9792 155.741 27.2656 155.262 26.3437C154.783 25.4167 154.543 24.3203 154.543 23.0547C154.543 21.8203 154.783 20.737 155.262 19.8047C155.741 18.8724 156.415 18.1458 157.285 17.625C158.16 17.1042 159.186 16.8438 160.363 16.8438C161.155 16.8438 161.892 16.9714 162.574 17.2266C163.262 17.4766 163.861 17.8542 164.371 18.3594C164.887 18.8646 165.288 19.5 165.574 20.2656C165.861 21.026 166.004 21.9167 166.004 22.9375V23.8516H155.871V21.7891H162.871C162.871 21.3099 162.767 20.8854 162.559 20.5156C162.35 20.1458 162.061 19.8568 161.691 19.6484C161.327 19.4349 160.902 19.3281 160.418 19.3281C159.913 19.3281 159.465 19.4453 159.074 19.6797C158.689 19.9089 158.387 20.2187 158.168 20.6094C157.949 20.9948 157.837 21.4245 157.832 21.8984V23.8594C157.832 24.4531 157.941 24.9661 158.16 25.3984C158.384 25.8307 158.699 26.1641 159.105 26.3984C159.512 26.6328 159.993 26.75 160.551 26.75C160.921 26.75 161.259 26.6979 161.566 26.5938C161.874 26.4896 162.137 26.3333 162.355 26.125C162.574 25.9167 162.741 25.6615 162.855 25.3594L165.934 25.5625C165.777 26.3021 165.457 26.9479 164.973 27.5C164.493 28.0469 163.874 28.474 163.113 28.7813C162.358 29.0833 161.486 29.2344 160.496 29.2344ZM168.176 29V17H171.348V19.1172H171.488C171.738 18.4141 172.155 17.8594 172.738 17.4531C173.322 17.0469 174.02 16.8438 174.832 16.8438C175.655 16.8438 176.355 17.0495 176.934 17.4609C177.512 17.8672 177.897 18.4193 178.09 19.1172H178.215C178.46 18.4297 178.902 17.8802 179.543 17.4687C180.189 17.0521 180.952 16.8438 181.832 16.8438C182.952 16.8438 183.861 17.2005 184.559 17.9141C185.262 18.6224 185.613 19.6276 185.613 20.9297V29H182.293V21.5859C182.293 20.9193 182.116 20.4193 181.762 20.0859C181.408 19.7526 180.965 19.5859 180.434 19.5859C179.829 19.5859 179.358 19.7786 179.02 20.1641C178.681 20.5443 178.512 21.0469 178.512 21.6719V29H175.285V21.5156C175.285 20.9271 175.116 20.4583 174.777 20.1094C174.444 19.7604 174.004 19.5859 173.457 19.5859C173.087 19.5859 172.754 19.6797 172.457 19.8672C172.165 20.0495 171.934 20.3073 171.762 20.6406C171.59 20.9687 171.504 21.3542 171.504 21.7969V29H168.176ZM193.664 29.2344C192.451 29.2344 191.401 28.9766 190.516 28.4609C189.635 27.9401 188.956 27.2161 188.477 26.2891C187.997 25.3568 187.758 24.276 187.758 23.0469C187.758 21.8073 187.997 20.724 188.477 19.7969C188.956 18.8646 189.635 18.1406 190.516 17.625C191.401 17.1042 192.451 16.8438 193.664 16.8438C194.878 16.8438 195.924 17.1042 196.805 17.625C197.69 18.1406 198.372 18.8646 198.852 19.7969C199.331 20.724 199.57 21.8073 199.57 23.0469C199.57 24.276 199.331 25.3568 198.852 26.2891C198.372 27.2161 197.69 27.9401 196.805 28.4609C195.924 28.9766 194.878 29.2344 193.664 29.2344ZM193.68 26.6562C194.232 26.6562 194.693 26.5 195.063 26.1875C195.432 25.8698 195.711 25.4375 195.898 24.8906C196.091 24.3437 196.188 23.7214 196.188 23.0234C196.188 22.3255 196.091 21.7031 195.898 21.1562C195.711 20.6094 195.432 20.1771 195.063 19.8594C194.693 19.5417 194.232 19.3828 193.68 19.3828C193.122 19.3828 192.654 19.5417 192.273 19.8594C191.898 20.1771 191.615 20.6094 191.422 21.1562C191.234 21.7031 191.141 22.3255 191.141 23.0234C191.141 23.7214 191.234 24.3437 191.422 24.8906C191.615 25.4375 191.898 25.8698 192.273 26.1875C192.654 26.5 193.122 26.6562 193.68 26.6562ZM201.734 29V17H204.961V19.0937H205.086C205.305 18.349 205.672 17.7865 206.188 17.4063C206.703 17.0208 207.297 16.8281 207.969 16.8281C208.135 16.8281 208.315 16.8385 208.508 16.8594C208.701 16.8802 208.87 16.9089 209.016 16.9453V19.8984C208.859 19.8516 208.643 19.8099 208.367 19.7734C208.091 19.737 207.839 19.7188 207.609 19.7188C207.12 19.7188 206.682 19.8255 206.297 20.0391C205.917 20.2474 205.615 20.5391 205.391 20.9141C205.172 21.2891 205.063 21.7214 205.063 22.2109V29H201.734ZM210.736 29V17H214.064V29H210.736ZM212.408 15.4531C211.913 15.4531 211.489 15.2891 211.135 14.9609C210.786 14.6276 210.611 14.2292 210.611 13.7656C210.611 13.3073 210.786 12.9141 211.135 12.5859C211.489 12.2526 211.913 12.0859 212.408 12.0859C212.903 12.0859 213.325 12.2526 213.674 12.5859C214.028 12.9141 214.205 13.3073 214.205 13.7656C214.205 14.2292 214.028 14.6276 213.674 14.9609C213.325 15.2891 212.903 15.4531 212.408 15.4531ZM222.199 29.2344C220.965 29.2344 219.902 28.9844 219.012 28.4844C218.126 27.9792 217.444 27.2656 216.965 26.3437C216.486 25.4167 216.246 24.3203 216.246 23.0547C216.246 21.8203 216.486 20.737 216.965 19.8047C217.444 18.8724 218.118 18.1458 218.988 17.625C219.863 17.1042 220.889 16.8438 222.066 16.8438C222.858 16.8438 223.595 16.9714 224.277 17.2266C224.965 17.4766 225.564 17.8542 226.074 18.3594C226.59 18.8646 226.991 19.5 227.277 20.2656C227.564 21.026 227.707 21.9167 227.707 22.9375V23.8516H217.574V21.7891H224.574C224.574 21.3099 224.47 20.8854 224.262 20.5156C224.053 20.1458 223.764 19.8568 223.395 19.6484C223.03 19.4349 222.605 19.3281 222.121 19.3281C221.616 19.3281 221.168 19.4453 220.777 19.6797C220.392 19.9089 220.09 20.2187 219.871 20.6094C219.652 20.9948 219.54 21.4245 219.535 21.8984V23.8594C219.535 24.4531 219.645 24.9661 219.863 25.3984C220.087 25.8307 220.402 26.1641 220.809 26.3984C221.215 26.6328 221.697 26.75 222.254 26.75C222.624 26.75 222.962 26.6979 223.27 26.5938C223.577 26.4896 223.84 26.3333 224.059 26.125C224.277 25.9167 224.444 25.6615 224.559 25.3594L227.637 25.5625C227.48 26.3021 227.16 26.9479 226.676 27.5C226.197 28.0469 225.577 28.474 224.816 28.7813C224.061 29.0833 223.189 29.2344 222.199 29.2344ZM239.863 20.4219L236.816 20.6094C236.764 20.349 236.652 20.1146 236.48 19.9062C236.309 19.6927 236.082 19.5234 235.801 19.3984C235.525 19.2682 235.194 19.2031 234.809 19.2031C234.293 19.2031 233.858 19.3125 233.504 19.5312C233.15 19.7448 232.973 20.0312 232.973 20.3906C232.973 20.6771 233.087 20.9193 233.316 21.1172C233.546 21.3151 233.939 21.474 234.496 21.5937L236.668 22.0312C237.835 22.2708 238.704 22.6562 239.277 23.1875C239.85 23.7187 240.137 24.4167 240.137 25.2812C240.137 26.0677 239.905 26.7578 239.441 27.3516C238.983 27.9453 238.353 28.4089 237.551 28.7422C236.754 29.0703 235.835 29.2344 234.793 29.2344C233.204 29.2344 231.939 28.9036 230.996 28.2422C230.059 27.5755 229.509 26.6693 229.348 25.5234L232.621 25.3516C232.72 25.8359 232.96 26.2057 233.34 26.4609C233.72 26.7109 234.207 26.8359 234.801 26.8359C235.384 26.8359 235.853 26.724 236.207 26.5C236.566 26.2708 236.749 25.9766 236.754 25.6172C236.749 25.3151 236.621 25.0677 236.371 24.875C236.121 24.6771 235.736 24.526 235.215 24.4219L233.137 24.0078C231.965 23.7734 231.092 23.3672 230.52 22.7891C229.952 22.2109 229.668 21.474 229.668 20.5781C229.668 19.8073 229.876 19.1432 230.293 18.5859C230.715 18.0286 231.306 17.599 232.066 17.2969C232.832 16.9948 233.728 16.8438 234.754 16.8438C236.27 16.8438 237.462 17.1641 238.332 17.8047C239.207 18.4453 239.717 19.3177 239.863 20.4219ZM247.387 29V13H250.77V26.2109H257.629V29H247.387ZM265.275 29.2344C264.041 29.2344 262.979 28.9844 262.088 28.4844C261.202 27.9792 260.52 27.2656 260.041 26.3437C259.562 25.4167 259.322 24.3203 259.322 23.0547C259.322 21.8203 259.562 20.737 260.041 19.8047C260.52 18.8724 261.195 18.1458 262.064 17.625C262.939 17.1042 263.965 16.8438 265.143 16.8438C265.934 16.8438 266.671 16.9714 267.354 17.2266C268.041 17.4766 268.64 17.8542 269.15 18.3594C269.666 18.8646 270.067 19.5 270.354 20.2656C270.64 21.026 270.783 21.9167 270.783 22.9375V23.8516H260.65V21.7891H267.65C267.65 21.3099 267.546 20.8854 267.338 20.5156C267.13 20.1458 266.84 19.8568 266.471 19.6484C266.106 19.4349 265.682 19.3281 265.197 19.3281C264.692 19.3281 264.244 19.4453 263.854 19.6797C263.468 19.9089 263.166 20.2187 262.947 20.6094C262.729 20.9948 262.617 21.4245 262.611 21.8984V23.8594C262.611 24.4531 262.721 24.9661 262.939 25.3984C263.163 25.8307 263.479 26.1641 263.885 26.3984C264.291 26.6328 264.773 26.75 265.33 26.75C265.7 26.75 266.038 26.6979 266.346 26.5938C266.653 26.4896 266.916 26.3333 267.135 26.125C267.354 25.9167 267.52 25.6615 267.635 25.3594L270.713 25.5625C270.557 26.3021 270.236 26.9479 269.752 27.5C269.273 28.0469 268.653 28.474 267.893 28.7813C267.137 29.0833 266.265 29.2344 265.275 29.2344ZM276.283 22.0625V29H272.955V17H276.127V19.1172H276.268C276.533 18.4193 276.979 17.8672 277.604 17.4609C278.229 17.0495 278.986 16.8438 279.877 16.8438C280.71 16.8438 281.437 17.026 282.057 17.3906C282.676 17.7552 283.158 18.276 283.502 18.9531C283.846 19.625 284.018 20.4271 284.018 21.3594V29H280.689V21.9531C280.695 21.2187 280.507 20.6458 280.127 20.2344C279.747 19.8177 279.223 19.6094 278.557 19.6094C278.109 19.6094 277.713 19.7057 277.369 19.8984C277.031 20.0911 276.765 20.3724 276.572 20.7422C276.385 21.1068 276.288 21.5469 276.283 22.0625ZM296.625 20.4219L293.578 20.6094C293.526 20.349 293.414 20.1146 293.242 19.9062C293.07 19.6927 292.844 19.5234 292.563 19.3984C292.286 19.2682 291.956 19.2031 291.57 19.2031C291.055 19.2031 290.62 19.3125 290.266 19.5312C289.911 19.7448 289.734 20.0312 289.734 20.3906C289.734 20.6771 289.849 20.9193 290.078 21.1172C290.307 21.3151 290.701 21.474 291.258 21.5937L293.43 22.0312C294.596 22.2708 295.466 22.6562 296.039 23.1875C296.612 23.7187 296.898 24.4167 296.898 25.2812C296.898 26.0677 296.667 26.7578 296.203 27.3516C295.745 27.9453 295.115 28.4089 294.313 28.7422C293.516 29.0703 292.596 29.2344 291.555 29.2344C289.966 29.2344 288.701 28.9036 287.758 28.2422C286.82 27.5755 286.271 26.6693 286.109 25.5234L289.383 25.3516C289.482 25.8359 289.721 26.2057 290.102 26.4609C290.482 26.7109 290.969 26.8359 291.562 26.8359C292.146 26.8359 292.615 26.724 292.969 26.5C293.328 26.2708 293.51 25.9766 293.516 25.6172C293.51 25.3151 293.383 25.0677 293.133 24.875C292.883 24.6771 292.497 24.526 291.977 24.4219L289.898 24.0078C288.727 23.7734 287.854 23.3672 287.281 22.7891C286.714 22.2109 286.43 21.474 286.43 20.5781C286.43 19.8073 286.638 19.1432 287.055 18.5859C287.477 18.0286 288.068 17.599 288.828 17.2969C289.594 16.9948 290.49 16.8438 291.516 16.8438C293.031 16.8438 294.224 17.1641 295.094 17.8047C295.969 18.4453 296.479 19.3177 296.625 20.4219Z" fill="#532800"/>
</svg>
